<svg width="272" height="76" viewBox="0 0 272 76" fill="none" xmlns="http://www.w3.org/2000/svg">
<mask id="path-1-inside-1_8358_214" fill="white">
<path d="M0 0H272V75.792H0V0Z"/>
</mask>
<path d="M272 75.792V74.792H0V75.792V76.792H272V75.792Z" fill="#F4F4F5" mask="url(#path-1-inside-1_8358_214)"/>
<g clip-path="url(#clip0_8358_214)">
<rect x="32" y="24" width="27.792" height="27.792" rx="6" fill="#0B68F7"/>
<path d="M45.6748 30.349L45.6758 30.35L45.6777 30.349L45.6768 30.35C45.885 30.3532 46.0869 30.4222 46.252 30.5492C46.4174 30.6765 46.5374 30.8541 46.5938 31.0551L49.4717 41.2904L50.8877 37.517C50.9568 37.3326 51.0804 37.1731 51.2422 37.0609C51.4039 36.9488 51.5962 36.8892 51.793 36.889H74.1826C74.4391 36.8891 74.6848 36.991 74.8662 37.1722C75.0477 37.3537 75.1504 37.6002 75.1504 37.8568C75.1503 38.1133 75.0476 38.3591 74.8662 38.5404C74.6848 38.7217 74.4391 38.8236 74.1826 38.8236H52.4639L50.2461 44.7367C50.1745 44.9274 50.0448 45.0909 49.875 45.2035C49.705 45.3161 49.5035 45.3722 49.2998 45.3636C49.0961 45.3551 48.9002 45.2821 48.7402 45.1556C48.5803 45.0291 48.4644 44.8549 48.4092 44.6586L45.6123 34.7152L44.541 38.1449C44.4796 38.3416 44.3564 38.514 44.1904 38.6361C44.0245 38.758 43.824 38.8235 43.6182 38.8236H22.8174C22.5609 38.8236 22.3152 38.7217 22.1338 38.5404C21.9524 38.3591 21.8497 38.1133 21.8496 37.8568C21.8496 37.6002 21.9523 37.3537 22.1338 37.1722C22.3152 36.991 22.5609 36.8891 22.8174 36.889H42.9072L44.7383 31.0277L44.7959 30.8832C44.8653 30.7444 44.9677 30.6234 45.0947 30.5316C45.2626 30.4103 45.4649 30.3477 45.6719 30.35L45.6729 30.349H45.6748Z" fill="white" stroke="white" stroke-width="0.3"/>
</g>
<path d="M71.0859 46.116C70.1472 46.116 69.3186 45.8887 68.5999 45.434C67.8959 44.9793 67.3459 44.334 66.9499 43.498C66.5539 42.6473 66.3559 41.65 66.3559 40.506C66.3559 39.3473 66.5539 38.3573 66.9499 37.536C67.3459 36.7 67.8959 36.0547 68.5999 35.6C69.3186 35.1453 70.1472 34.918 71.0859 34.918C71.9806 34.918 72.7579 35.138 73.4179 35.578C74.0926 36.018 74.5472 36.5973 74.7819 37.316H74.5399V31.596C74.5399 31.1413 74.6572 30.7967 74.8919 30.562C75.1266 30.3273 75.4639 30.21 75.9039 30.21C76.3439 30.21 76.6812 30.3273 76.9159 30.562C77.1652 30.7967 77.2899 31.1413 77.2899 31.596V44.664C77.2899 45.1187 77.1726 45.4707 76.9379 45.72C76.7032 45.9547 76.3659 46.072 75.9259 46.072C75.4859 46.072 75.1486 45.9547 74.9139 45.72C74.6792 45.4707 74.5619 45.1187 74.5619 44.664V42.948L74.8039 43.608C74.5839 44.3707 74.1366 44.9793 73.4619 45.434C72.7872 45.8887 71.9952 46.116 71.0859 46.116ZM71.8559 44.026C72.3986 44.026 72.8752 43.894 73.2859 43.63C73.6966 43.366 74.0119 42.9773 74.2319 42.464C74.4666 41.936 74.5839 41.2833 74.5839 40.506C74.5839 39.3327 74.3346 38.46 73.8359 37.888C73.3372 37.3013 72.6772 37.008 71.8559 37.008C71.3132 37.008 70.8366 37.14 70.4259 37.404C70.0152 37.6533 69.6926 38.042 69.4579 38.57C69.2379 39.0833 69.1279 39.7287 69.1279 40.506C69.1279 41.6647 69.3772 42.5447 69.8759 43.146C70.3746 43.7327 71.0346 44.026 71.8559 44.026ZM81.5493 46.072C81.0946 46.072 80.7426 45.9547 80.4933 45.72C80.2586 45.4707 80.1413 45.1187 80.1413 44.664V36.348C80.1413 35.8933 80.2586 35.5487 80.4933 35.314C80.728 35.0793 81.058 34.962 81.4833 34.962C81.9086 34.962 82.2386 35.0793 82.4733 35.314C82.708 35.5487 82.8253 35.8933 82.8253 36.348V37.734H82.6053C82.8106 36.854 83.214 36.1867 83.8153 35.732C84.4166 35.2773 85.216 35.006 86.2133 34.918C86.5213 34.8887 86.7633 34.9693 86.9393 35.16C87.13 35.336 87.24 35.6147 87.2693 35.996C87.2986 36.3627 87.2106 36.6633 87.0053 36.898C86.8146 37.118 86.5213 37.25 86.1253 37.294L85.6413 37.338C84.7466 37.426 84.072 37.7047 83.6173 38.174C83.1626 38.6287 82.9353 39.274 82.9353 40.11V44.664C82.9353 45.1187 82.818 45.4707 82.5833 45.72C82.3486 45.9547 82.004 46.072 81.5493 46.072ZM89.5824 46.006C89.0837 46.006 88.6804 45.852 88.3724 45.544C88.0791 45.236 87.9324 44.84 87.9324 44.356C87.9324 43.8867 88.0791 43.5053 88.3724 43.212C88.6804 42.904 89.0837 42.75 89.5824 42.75C90.0957 42.75 90.4917 42.904 90.7704 43.212C91.0637 43.5053 91.2104 43.8867 91.2104 44.356C91.2104 44.84 91.0637 45.236 90.7704 45.544C90.4917 45.852 90.0957 46.006 89.5824 46.006ZM97.197 46.116C96.4196 46.116 95.723 45.9693 95.107 45.676C94.5056 45.368 94.029 44.9573 93.677 44.444C93.3396 43.9307 93.171 43.3513 93.171 42.706C93.171 41.914 93.3763 41.2907 93.787 40.836C94.1976 40.3667 94.865 40.0293 95.789 39.824C96.713 39.6187 97.9523 39.516 99.507 39.516H100.607V41.1H99.529C98.6196 41.1 97.8936 41.144 97.351 41.232C96.8083 41.32 96.4196 41.474 96.185 41.694C95.965 41.8993 95.855 42.1927 95.855 42.574C95.855 43.058 96.0236 43.454 96.361 43.762C96.6983 44.07 97.1676 44.224 97.769 44.224C98.253 44.224 98.6783 44.114 99.045 43.894C99.4263 43.6593 99.727 43.344 99.947 42.948C100.167 42.552 100.277 42.0973 100.277 41.584V39.054C100.277 38.3207 100.116 37.7927 99.793 37.47C99.4703 37.1473 98.9276 36.986 98.165 36.986C97.7396 36.986 97.2776 37.0373 96.779 37.14C96.295 37.2427 95.7816 37.4187 95.239 37.668C94.9603 37.8 94.711 37.8367 94.491 37.778C94.2856 37.7193 94.1243 37.602 94.007 37.426C93.8896 37.2353 93.831 37.03 93.831 36.81C93.831 36.59 93.8896 36.3773 94.007 36.172C94.1243 35.952 94.3223 35.7907 94.601 35.688C95.2756 35.4093 95.921 35.2113 96.537 35.094C97.1676 34.9767 97.7396 34.918 98.253 34.918C99.309 34.918 100.174 35.0793 100.849 35.402C101.538 35.7247 102.052 36.216 102.389 36.876C102.726 37.5213 102.895 38.3573 102.895 39.384V44.664C102.895 45.1187 102.785 45.4707 102.565 45.72C102.345 45.9547 102.03 46.072 101.619 46.072C101.208 46.072 100.886 45.9547 100.651 45.72C100.431 45.4707 100.321 45.1187 100.321 44.664V43.608H100.497C100.394 44.1213 100.189 44.5687 99.881 44.95C99.5876 45.3167 99.2136 45.6027 98.759 45.808C98.3043 46.0133 97.7836 46.116 97.197 46.116ZM110.702 50.076C109.91 50.076 109.14 50.0027 108.392 49.856C107.659 49.7093 106.992 49.482 106.39 49.174C106.112 49.0273 105.921 48.8513 105.818 48.646C105.73 48.4407 105.701 48.228 105.73 48.008C105.774 47.8027 105.862 47.6193 105.994 47.458C106.141 47.2967 106.317 47.1867 106.522 47.128C106.728 47.0693 106.94 47.0987 107.16 47.216C107.806 47.5387 108.414 47.744 108.986 47.832C109.573 47.9347 110.072 47.986 110.482 47.986C111.465 47.986 112.198 47.744 112.682 47.26C113.181 46.7907 113.43 46.0867 113.43 45.148V43.168H113.628C113.408 43.916 112.946 44.5173 112.242 44.972C111.553 45.412 110.768 45.632 109.888 45.632C108.92 45.632 108.077 45.412 107.358 44.972C106.64 44.5173 106.082 43.8867 105.686 43.08C105.29 42.2733 105.092 41.3347 105.092 40.264C105.092 39.4573 105.202 38.7313 105.422 38.086C105.657 37.426 105.98 36.8613 106.39 36.392C106.816 35.9227 107.322 35.5633 107.908 35.314C108.51 35.05 109.17 34.918 109.888 34.918C110.798 34.918 111.59 35.1453 112.264 35.6C112.954 36.04 113.401 36.6267 113.606 37.36L113.386 37.91V36.348C113.386 35.8933 113.504 35.5487 113.738 35.314C113.988 35.0793 114.325 34.962 114.75 34.962C115.19 34.962 115.528 35.0793 115.762 35.314C115.997 35.5487 116.114 35.8933 116.114 36.348V44.818C116.114 46.5633 115.652 47.876 114.728 48.756C113.804 49.636 112.462 50.076 110.702 50.076ZM110.636 43.542C111.208 43.542 111.7 43.41 112.11 43.146C112.521 42.882 112.836 42.508 113.056 42.024C113.291 41.5253 113.408 40.9387 113.408 40.264C113.408 39.252 113.159 38.46 112.66 37.888C112.162 37.3013 111.487 37.008 110.636 37.008C110.064 37.008 109.573 37.14 109.162 37.404C108.752 37.668 108.429 38.042 108.194 38.526C107.974 39.01 107.864 39.5893 107.864 40.264C107.864 41.276 108.114 42.0753 108.612 42.662C109.111 43.2487 109.786 43.542 110.636 43.542ZM124.266 46.116C123.048 46.116 122 45.8887 121.12 45.434C120.24 44.9793 119.558 44.334 119.074 43.498C118.604 42.662 118.37 41.672 118.37 40.528C118.37 39.4133 118.597 38.438 119.052 37.602C119.521 36.766 120.159 36.1133 120.966 35.644C121.787 35.16 122.718 34.918 123.76 34.918C124.522 34.918 125.204 35.0427 125.806 35.292C126.422 35.5413 126.942 35.9007 127.368 36.37C127.808 36.8393 128.138 37.4113 128.358 38.086C128.592 38.746 128.71 39.494 128.71 40.33C128.71 40.594 128.614 40.7993 128.424 40.946C128.248 41.078 127.991 41.144 127.654 41.144H120.592V39.56H126.774L126.422 39.89C126.422 39.2153 126.319 38.6507 126.114 38.196C125.923 37.7413 125.637 37.3967 125.256 37.162C124.889 36.9127 124.427 36.788 123.87 36.788C123.254 36.788 122.726 36.9347 122.286 37.228C121.86 37.5067 121.53 37.91 121.296 38.438C121.076 38.9513 120.966 39.5673 120.966 40.286V40.44C120.966 41.6427 121.244 42.5447 121.802 43.146C122.374 43.7327 123.21 44.026 124.31 44.026C124.691 44.026 125.116 43.982 125.586 43.894C126.07 43.7913 126.524 43.6227 126.95 43.388C127.258 43.212 127.529 43.1387 127.764 43.168C127.998 43.1827 128.182 43.2633 128.314 43.41C128.46 43.5567 128.548 43.74 128.578 43.96C128.607 44.1653 128.563 44.378 128.446 44.598C128.343 44.818 128.16 45.0087 127.896 45.17C127.382 45.4927 126.788 45.7347 126.114 45.896C125.454 46.0427 124.838 46.116 124.266 46.116ZM132.251 46.072C131.811 46.072 131.474 45.9547 131.239 45.72C131.005 45.4707 130.887 45.1187 130.887 44.664V36.348C130.887 35.8933 131.005 35.5487 131.239 35.314C131.474 35.0793 131.804 34.962 132.229 34.962C132.655 34.962 132.985 35.0793 133.219 35.314C133.454 35.5487 133.571 35.8933 133.571 36.348V37.844L133.329 37.294C133.652 36.5167 134.151 35.93 134.825 35.534C135.515 35.1233 136.292 34.918 137.157 34.918C138.023 34.918 138.734 35.0793 139.291 35.402C139.849 35.7247 140.267 36.216 140.545 36.876C140.824 37.5213 140.963 38.3427 140.963 39.34V44.664C140.963 45.1187 140.846 45.4707 140.611 45.72C140.377 45.9547 140.039 46.072 139.599 46.072C139.159 46.072 138.815 45.9547 138.565 45.72C138.331 45.4707 138.213 45.1187 138.213 44.664V39.472C138.213 38.636 138.052 38.0273 137.729 37.646C137.421 37.2647 136.937 37.074 136.277 37.074C135.471 37.074 134.825 37.3307 134.341 37.844C133.872 38.3427 133.637 39.01 133.637 39.846V44.664C133.637 45.6027 133.175 46.072 132.251 46.072ZM147.893 46.116C146.954 46.116 146.125 45.8887 145.407 45.434C144.703 44.9793 144.153 44.334 143.757 43.498C143.361 42.6473 143.163 41.65 143.163 40.506C143.163 39.3473 143.361 38.3573 143.757 37.536C144.153 36.7 144.703 36.0547 145.407 35.6C146.125 35.1453 146.954 34.918 147.893 34.918C148.787 34.918 149.565 35.138 150.225 35.578C150.899 36.018 151.354 36.5973 151.589 37.316H151.347V31.596C151.347 31.1413 151.464 30.7967 151.699 30.562C151.933 30.3273 152.271 30.21 152.711 30.21C153.151 30.21 153.488 30.3273 153.723 30.562C153.972 30.7967 154.097 31.1413 154.097 31.596V44.664C154.097 45.1187 153.979 45.4707 153.745 45.72C153.51 45.9547 153.173 46.072 152.733 46.072C152.293 46.072 151.955 45.9547 151.721 45.72C151.486 45.4707 151.369 45.1187 151.369 44.664V42.948L151.611 43.608C151.391 44.3707 150.943 44.9793 150.269 45.434C149.594 45.8887 148.802 46.116 147.893 46.116ZM148.663 44.026C149.205 44.026 149.682 43.894 150.093 43.63C150.503 43.366 150.819 42.9773 151.039 42.464C151.273 41.936 151.391 41.2833 151.391 40.506C151.391 39.3327 151.141 38.46 150.643 37.888C150.144 37.3013 149.484 37.008 148.663 37.008C148.12 37.008 147.643 37.14 147.233 37.404C146.822 37.6533 146.499 38.042 146.265 38.57C146.045 39.0833 145.935 39.7287 145.935 40.506C145.935 41.6647 146.184 42.5447 146.683 43.146C147.181 43.7327 147.841 44.026 148.663 44.026ZM160.49 46.116C159.713 46.116 159.016 45.9693 158.4 45.676C157.799 45.368 157.322 44.9573 156.97 44.444C156.633 43.9307 156.464 43.3513 156.464 42.706C156.464 41.914 156.669 41.2907 157.08 40.836C157.491 40.3667 158.158 40.0293 159.082 39.824C160.006 39.6187 161.245 39.516 162.8 39.516H163.9V41.1H162.822C161.913 41.1 161.187 41.144 160.644 41.232C160.101 41.32 159.713 41.474 159.478 41.694C159.258 41.8993 159.148 42.1927 159.148 42.574C159.148 43.058 159.317 43.454 159.654 43.762C159.991 44.07 160.461 44.224 161.062 44.224C161.546 44.224 161.971 44.114 162.338 43.894C162.719 43.6593 163.02 43.344 163.24 42.948C163.46 42.552 163.57 42.0973 163.57 41.584V39.054C163.57 38.3207 163.409 37.7927 163.086 37.47C162.763 37.1473 162.221 36.986 161.458 36.986C161.033 36.986 160.571 37.0373 160.072 37.14C159.588 37.2427 159.075 37.4187 158.532 37.668C158.253 37.8 158.004 37.8367 157.784 37.778C157.579 37.7193 157.417 37.602 157.3 37.426C157.183 37.2353 157.124 37.03 157.124 36.81C157.124 36.59 157.183 36.3773 157.3 36.172C157.417 35.952 157.615 35.7907 157.894 35.688C158.569 35.4093 159.214 35.2113 159.83 35.094C160.461 34.9767 161.033 34.918 161.546 34.918C162.602 34.918 163.467 35.0793 164.142 35.402C164.831 35.7247 165.345 36.216 165.682 36.876C166.019 37.5213 166.188 38.3573 166.188 39.384V44.664C166.188 45.1187 166.078 45.4707 165.858 45.72C165.638 45.9547 165.323 46.072 164.912 46.072C164.501 46.072 164.179 45.9547 163.944 45.72C163.724 45.4707 163.614 45.1187 163.614 44.664V43.608H163.79C163.687 44.1213 163.482 44.5687 163.174 44.95C162.881 45.3167 162.507 45.6027 162.052 45.808C161.597 46.0133 161.077 46.116 160.49 46.116Z" fill="#0E0A2F"/>
<defs>
<clipPath id="clip0_8358_214">
<rect x="32" y="24" width="27.792" height="27.792" rx="6" fill="white"/>
</clipPath>
</defs>
</svg>
